<svg width="216" height="41" viewBox="0 0 216 41" fill="none" xmlns="http://www.w3.org/2000/svg">
<path d="M16.9323 9.60285C11.6818 9.60285 8.71562 11.4161 5.8215 13.6945V1.52095C5.8215 0.387694 4.96768 -0.536804 3.91427 -0.536804H0.504529V34.0573L0 40.0576H2.36187C2.40622 40.0636 3.14915 40.0636 3.14915 40.0636C4.5574 40.0636 4.87343 39.0436 5.05639 38.1013L5.49993 36.2523C8.70453 39.0019 11.5765 40.9225 17.4423 40.9225C28.5753 40.9225 32.6171 31.7073 32.6171 25.5102C32.6115 19.5934 29.3071 9.60285 16.9323 9.60285ZM27.289 25.6056C27.289 30.6874 23.6131 35.8347 16.583 35.8347C12.5578 35.8347 8.27762 33.0255 5.79378 30.2221C5.72725 29.2619 5.72725 20.9354 5.79933 19.8618C8.00041 17.4342 11.2327 14.6846 16.6772 14.6846C21.8112 14.6786 27.289 17.5476 27.289 25.6056ZM50.1259 9.51339C41.4491 9.51339 35.1508 16.0386 35.1508 25.033C35.1508 34.1826 41.6598 40.8211 50.6249 40.8211C59.2906 40.8211 62.2346 37.4213 64.8349 34.4271L65.8107 33.3058L61.5971 29.9895L61.0759 30.6933C59.4847 32.8286 57.3002 35.7512 51.0296 35.7512C44.6537 35.7512 41.2218 31.2898 40.5731 26.7389H66.2432L66.2598 25.6116C66.2598 20.9235 64.968 17.1301 62.4176 14.3327C59.59 11.2252 55.2267 9.51339 50.1259 9.51339ZM40.8392 21.6571C42.1643 17.0287 45.4854 14.5892 50.4808 14.5892C57.7493 14.5892 59.8451 19.5457 60.405 21.6571H40.8392ZM82.3771 35.9242C78.4129 35.9242 77.6367 34.4868 77.6367 32.0115V15.627H88.071V12.6149C88.071 11.4817 87.2172 10.5572 86.1694 10.5572L77.6367 10.5512V3.19698C77.6367 2.06969 76.7773 1.15712 75.7239 1.15712L72.3142 1.16308V10.5512H66.7533V15.627H72.3197V32.4409C72.3197 34.779 72.3197 40.994 81.5232 40.994C83.2253 40.994 85.2878 40.672 88.2485 40.1769L88.7752 40.0874V34.9043L87.6774 35.1429C85.6482 35.5962 84.1845 35.9242 82.3771 35.9242ZM106.262 22.2118C101.804 21.6392 97.9565 21.1442 97.9565 18.5615C97.9565 15.1558 102.276 14.6488 104.854 14.6488C109.295 14.6488 112.721 16.2712 115.044 19.4622L115.454 20.0407L119.13 16.4441L118.809 15.961C117.772 14.3804 114.606 9.57303 104.904 9.57303C98.9767 9.57303 92.6451 12.0065 92.6451 18.8359C92.6451 25.8144 99.5477 26.715 105.641 27.5083C110.376 28.1226 114.462 28.6535 114.462 31.6775C114.462 34.7253 110.37 35.8049 106.866 35.8049C102.098 35.8049 98.2615 33.8903 95.4727 30.1207L95.0569 29.5541L91.0982 33.4549L91.4919 33.9559C95.2564 38.6798 100.036 40.8867 106.517 40.8867C114.95 40.8867 119.784 37.4153 119.784 31.3554C119.784 23.9475 112.605 23.023 106.262 22.2118ZM137.448 22.2118C132.991 21.6392 129.143 21.1442 129.143 18.5615C129.143 15.1558 133.462 14.6488 136.04 14.6488C140.481 14.6488 143.908 16.2712 146.231 19.4622L146.641 20.0407L150.317 16.4441L149.99 15.961C148.953 14.3804 145.787 9.57303 136.085 9.57303C130.158 9.57303 123.821 12.0065 123.821 18.8359C123.821 25.8144 130.723 26.715 136.816 27.5083C141.551 28.1226 145.637 28.6535 145.637 31.6775C145.637 34.7253 141.546 35.8049 138.042 35.8049C133.274 35.8049 129.437 33.8903 126.648 30.1207L126.232 29.5541L122.279 33.4489L122.673 33.95C126.443 38.6738 131.217 40.8807 137.698 40.8807C146.131 40.8807 150.965 37.4094 150.965 31.3494C150.965 23.9475 143.791 23.023 137.448 22.2118ZM169.323 9.57303C160.18 9.57303 153.549 15.9431 153.549 24.7169C153.549 34.6896 159.598 40.8867 169.323 40.8867C179.025 40.8867 185.052 34.6896 185.052 24.7169C185.052 15.9372 178.437 9.57303 169.323 9.57303ZM179.729 25.2537C179.729 31.761 175.743 35.8049 169.323 35.8049C162.969 35.8049 158.866 31.6656 158.866 25.2537C158.866 20.1481 162.137 14.6488 169.323 14.6488C176.514 14.6488 179.729 19.9751 179.729 25.2537ZM204.534 9.57303C200.892 9.57303 197.482 10.9568 194.128 13.7959V12.4777C194.128 11.3505 193.268 10.4379 192.209 10.4379H188.805V40.0218H194.122V19.9155C195.919 17.8995 199.522 14.6488 204.03 14.6488C206.32 14.6488 208.038 15.2632 209.147 16.474C210.19 17.6132 210.705 19.331 210.672 21.5796V40.0218H215.989V20.7267C215.994 11.0224 208.815 9.57303 204.534 9.57303Z" fill="white"/>
</svg>
