<?xml version="1.0" encoding="UTF-8" standalone="no"?>
<!-- Created with Inkscape (http://www.inkscape.org/) -->

<svg
   xmlns:dc="http://purl.org/dc/elements/1.1/"
   xmlns:cc="http://creativecommons.org/ns#"
   xmlns:rdf="http://www.w3.org/1999/02/22-rdf-syntax-ns#"
   xmlns:svg="http://www.w3.org/2000/svg"
   xmlns="http://www.w3.org/2000/svg"
   xmlns:sodipodi="http://sodipodi.sourceforge.net/DTD/sodipodi-0.dtd"
   xmlns:inkscape="http://www.inkscape.org/namespaces/inkscape"
   width="100"
   height="20"
   viewBox="0 0 26.458332 5.2916665"
   version="1.1"
   id="svg6538"
   inkscape:version="0.92.4 (5da689c313, 2019-01-14)"
   sodipodi:docname="Corficolombiana logo.svg">
  <title
     id="title834">Directv LA logo</title>
  <defs
     id="defs6532">
    <clipPath
       id="clipPath4571"
       clipPathUnits="userSpaceOnUse">
      <path
         inkscape:connector-curvature="0"
         id="path4569"
         d="M 21.758,22.944 H 633.374 V 814.661 H 21.758 Z" />
    </clipPath>
    <clipPath
       id="clipPath4533"
       clipPathUnits="userSpaceOnUse">
      <path
         inkscape:connector-curvature="0"
         id="path4531"
         d="M 21.758,22.944 H 633.374 V 814.661 H 21.758 Z" />
    </clipPath>
  </defs>
  <sodipodi:namedview
     id="base"
     pagecolor="#ffffff"
     bordercolor="#666666"
     borderopacity="1.0"
     inkscape:pageopacity="0.0"
     inkscape:pageshadow="2"
     inkscape:zoom="1"
     inkscape:cx="55.415989"
     inkscape:cy="13.795217"
     inkscape:document-units="mm"
     inkscape:current-layer="layer1"
     showgrid="false"
     fit-margin-top="0"
     fit-margin-left="0"
     fit-margin-right="0"
     fit-margin-bottom="0"
     units="px"
     inkscape:window-width="1366"
     inkscape:window-height="705"
     inkscape:window-x="-8"
     inkscape:window-y="-8"
     inkscape:window-maximized="1"
     inkscape:showpageshadow="false" />
  <metadata
     id="metadata6535">
    <rdf:RDF>
      <cc:Work
         rdf:about="">
        <dc:format>image/svg+xml</dc:format>
        <dc:type
           rdf:resource="http://purl.org/dc/dcmitype/StillImage" />
        <dc:title>Directv LA logo</dc:title>
        <cc:license
           rdf:resource="http://scripts.sil.org/OFL" />
        <dc:date>17 nov 2019</dc:date>
      </cc:Work>
      <cc:License
         rdf:about="http://scripts.sil.org/OFL">
        <cc:permits
           rdf:resource="http://scripts.sil.org/pub/OFL/Reproduction" />
        <cc:permits
           rdf:resource="http://scripts.sil.org/pub/OFL/Distribution" />
        <cc:permits
           rdf:resource="http://scripts.sil.org/pub/OFL/Embedding" />
        <cc:permits
           rdf:resource="http://scripts.sil.org/pub/OFL/DerivativeWorks" />
        <cc:requires
           rdf:resource="http://scripts.sil.org/pub/OFL/Notice" />
        <cc:requires
           rdf:resource="http://scripts.sil.org/pub/OFL/Attribution" />
        <cc:requires
           rdf:resource="http://scripts.sil.org/pub/OFL/ShareAlike" />
        <cc:requires
           rdf:resource="http://scripts.sil.org/pub/OFL/DerivativeRenaming" />
        <cc:requires
           rdf:resource="http://scripts.sil.org/pub/OFL/BundlingWhenSelling" />
      </cc:License>
    </rdf:RDF>
  </metadata>
  <g
     inkscape:label="Layer 1"
     inkscape:groupmode="layer"
     id="layer1"
     transform="translate(-57.452416,-157.21907)">
    <path
       d="m 58.53851,159.8598 a 0.7858102,0.7858102 0 0 1 0.786029,-0.78603 0.78602914,0.78602914 0 1 1 -0.786029,0.78603 z m 3.144444,-0.007 a 2.4713938,2.4713938 0 0 1 -0.715745,1.74579 2.4463242,2.4463242 0 0 1 -1.734957,0.7245 h -1.527611 a 0.10586215,0.10586215 0 0 1 -0.08233,-0.0379 0.11089798,0.11089798 0 0 1 -0.02616,-0.0884 c 0.09525,-0.59073 0.602221,-1.02512 1.197653,-1.02611 h 0.438338 c 0.677211,-0.004 1.239912,-0.52592 1.298044,-1.20401 0.0032,-0.0355 0.0046,-0.0711 0.0046,-0.12003 0,-0.0276 0,-0.0529 -0.0036,-0.0772 -0.04597,-0.68389 -0.623898,-1.21934 -1.314902,-1.21934 h -0.421008 a 1.2041135,1.2041135 0 0 1 -0.857518,-0.35513 1.2332337,1.2332337 0 0 1 -0.339699,-0.67054 c -0.0051,-0.0318 0.0037,-0.0643 0.02408,-0.0893 0.02091,-0.0244 0.05145,-0.0383 0.08342,-0.0383 h 1.501996 c 1.361319,0 2.471611,1.10131 2.475445,2.45608 z m 13.225652,1.494 a 1.0801879,1.0801879 0 0 1 0.367507,0.65225 0.09688521,0.09688521 0 0 1 -0.02188,0.0787 0.09743257,0.09743257 0 0 1 -0.07335,0.0355 h -1.364494 a 2.1879636,2.1879636 0 0 1 -1.548412,-0.6459 2.2002247,2.2002247 0 0 1 -0.639333,-1.55466 c 0.0033,-1.2064 0.994688,-2.18817 2.209749,-2.18817 h 1.34238 a 0.09633783,0.09633783 0 0 1 0.09471,0.11171 1.0962808,1.0962808 0 0 1 -0.302809,0.59598 1.0753711,1.0753711 0 0 1 -0.765556,0.3178 h -0.375827 c -0.614701,-0.001 -1.127151,0.4713 -1.174994,1.086 -0.0028,0.0231 -0.0028,0.0461 -0.0028,0.071 -6.62e-4,0.0357 5.29e-4,0.0712 0.0036,0.1067 0.05177,0.60453 0.554708,1.06979 1.159885,1.07275 h 0.38984 a 1.0800785,1.0800785 0 0 1 0.701842,0.26022 z m 8.724814,-3.63096 c 0.08155,0 0.0578,0.0576 0.0578,0.0576 l -1.610374,4.20208 a 0.13607718,0.13607718 0 0 1 -0.126554,0.0871 h -0.702499 a 0.13574877,0.13574877 0 0 1 -0.126555,-0.0875 l -1.601613,-4.20361 a 0.03842566,0.03842566 0 0 1 0.03724,-0.0559 h 0.968855 a 0.09009777,0.09009777 0 0 1 0.09425,0.0695 l 0.976952,2.92353 c 0,0 0.899339,-2.69363 0.981115,-2.92188 0.01203,-0.0461 0.05628,-0.0763 0.103572,-0.0708 z m -21.216655,0.0679 a 0.06787439,0.06787439 0 0 1 0.06767,-0.0679 h 0.895721 c 0.03732,1.1e-4 0.06755,0.0305 0.06776,0.0679 v 4.21139 a 0.06820281,0.06820281 0 0 1 -0.06634,0.0679 h -0.897145 a 0.06787439,0.06787439 0 0 1 -0.06766,-0.0679 v -4.2115 z m 16.646192,-0.0708 v -0.001 c 0.03724,2.2e-4 0.06743,0.0305 0.06766,0.0679 v 0.76819 a 0.06820281,0.06820281 0 0 1 -0.0659,0.0679 h -1.114455 v 3.37685 a 0.06765544,0.06765544 0 0 1 -0.06776,0.0679 h -0.897147 a 0.06787439,0.06787439 0 0 1 -0.06766,-0.0679 v -3.37685 h -1.110292 a 0.06820281,0.06820281 0 0 1 -0.06776,-0.0679 v -0.76677 a 0.06820281,0.06820281 0 0 1 0.06776,-0.0679 h 3.255451 z m -7.92313,0.90569 H 69.57379 v 0.87766 h 1.113029 c 0.03723,2.1e-4 0.06755,0.0305 0.06767,0.0679 v 0.6217 a 0.06820281,0.06820281 0 0 1 -0.06767,0.0679 H 69.57379 v 0.90208 h 1.559688 a 0.07553762,0.07553762 0 0 1 0.0751,0.0755 v 0.75131 c 0,0.0416 -0.03362,0.0754 -0.0751,0.0754 h -2.521863 a 0.06787439,0.06787439 0 0 1 -0.06767,-0.0679 v -4.20143 a 0.07115863,0.07115863 0 0 1 0.01773,-0.0562 c 0.0032,-0.005 0.01419,-0.0165 0.04784,-0.0165 h 2.53018 c 0.03723,2.1e-4 0.06755,0.0305 0.06767,0.0679 v 0.76676 a 0.06820281,0.06820281 0 0 1 -0.06767,0.0679 z m -3.268153,3.34555 0.0011,-0.001 a 0.06809333,0.06809333 0 0 1 -0.0589,0.1 h -0.979373 a 0.10235895,0.10235895 0 0 1 -0.09009,-0.0546 l -1.094639,-2.09328 a 0.1151675,0.1151675 0 0 1 0.102132,-0.16926 h 0.254529 c 0.04007,0 0.07193,-0.001 0.101044,-0.003 0.02902,-0.001 0.05989,-0.004 0.09525,-0.008 a 0.55503731,0.55503731 0 0 0 0.215666,-0.0711 0.56302897,0.56302897 0 0 0 0.159832,-0.14008 c 0.04269,-0.0559 0.07576,-0.11859 0.09743,-0.18555 a 0.66779635,0.66779635 0 0 0 0.03328,-0.20898 0.59149237,0.59149237 0 0 0 -0.03546,-0.20407 0.65564464,0.65564464 0 0 0 -0.103124,-0.18369 0.61196418,0.61196418 0 0 0 -0.161256,-0.14222 0.55766467,0.55766467 0 0 0 -0.21052,-0.0754 l -0.809676,-0.004 v 3.47716 a 0.06820281,0.06820281 0 0 1 -0.06766,0.0679 h -0.897147 a 0.06820281,0.06820281 0 0 1 -0.06776,-0.0679 v -4.21151 a 0.06820281,0.06820281 0 0 1 0.06776,-0.0679 h 1.942849 c 0.190488,-0.001 0.379333,0.0362 0.554708,0.111 a 1.4643351,1.4643351 0 0 1 0.450928,0.30137 1.4362001,1.4362001 0 0 1 0.303026,0.44579 1.3539845,1.3539845 0 0 1 0.110241,0.54201 1.2982617,1.2982617 0 0 1 -0.05276,0.37111 1.3918627,1.3918627 0 0 1 -0.373966,0.61065 1.5175399,1.5175399 0 0 1 -0.286058,0.21545 l -0.05539,0.0313 0.853903,1.61944 z"
       id="path2-3"
       inkscape:connector-curvature="0"
       style="fill:#FFFFFF;fill-rule:nonzero;stroke-width:0.10947481" />
  </g>
</svg>
