<?xml version="1.0" encoding="utf-8"?>
<svg version="1.2" baseProfile="tiny" xmlns="http://www.w3.org/2000/svg" xmlns:xlink="http://www.w3.org/1999/xlink"
	 x="0px" y="0px" viewBox="0 0 22 22" xml:space="preserve">
<path id="Facebook" fill="#FFFFFF" d="M11.8,22H1.2C0.5,22,0,21.5,0,20.8V1.2C0,0.5,0.5,0,1.2,0h19.6C21.5,0,22,0.5,22,1.2v19.6
	c0,0.7-0.5,1.2-1.2,1.2h-5.6v-8.5H18l0.4-3.3h-3.3V8c0-1,0.3-1.6,1.6-1.6l1.8,0v-3c-0.3,0-1.3-0.1-2.6-0.1c-2.5,0-4.3,1.5-4.3,4.4
	v2.4H8.9v3.3h2.9V22L11.8,22z"/>
</svg>
