<?xml version="1.0" encoding="utf-8"?>
<svg version="1.2" baseProfile="tiny" xmlns="http://www.w3.org/2000/svg" xmlns:xlink="http://www.w3.org/1999/xlink"
	 x="0px" y="0px" viewBox="0 0 24 24" xml:space="preserve">
<path id="Instagram" fill="#FFFFFF" d="M12,0c3.3,0,3.7,0,4.9,0.1c1.3,0.1,2.1,0.3,2.9,0.6C20.6,0.9,21.3,1.3,22,2
	c0.7,0.7,1.1,1.3,1.4,2.1c0.3,0.8,0.5,1.6,0.6,2.9C24,8.3,24,8.7,24,12c0,3.3,0,3.7-0.1,4.9c-0.1,1.3-0.3,2.1-0.6,2.9
	c-0.3,0.8-0.7,1.5-1.4,2.1c-0.7,0.7-1.3,1.1-2.1,1.4c-0.8,0.3-1.6,0.5-2.9,0.6C15.7,24,15.3,24,12,24c-3.3,0-3.7,0-4.9-0.1
	c-1.3-0.1-2.1-0.3-2.9-0.6C3.4,23.1,2.7,22.7,2,22c-0.7-0.7-1.1-1.3-1.4-2.1c-0.3-0.8-0.5-1.6-0.6-2.9C0,15.7,0,15.3,0,12
	c0-3.3,0-3.7,0.1-4.9c0.1-1.3,0.3-2.1,0.6-2.9C0.9,3.4,1.3,2.7,2,2c0.7-0.7,1.3-1.1,2.1-1.4c0.8-0.3,1.6-0.5,2.9-0.6
	C8.3,0,8.7,0,12,0z M12,2.2c-3.2,0-3.6,0-4.8,0.1C6,2.3,5.3,2.5,4.9,2.6C4.4,2.9,4,3.1,3.5,3.5C3.1,4,2.9,4.4,2.6,4.9
	C2.5,5.3,2.3,6,2.2,7.2C2.2,8.4,2.2,8.8,2.2,12c0,3.2,0,3.6,0.1,4.8c0.1,1.2,0.2,1.8,0.4,2.2c0.2,0.6,0.5,1,0.9,1.4
	c0.4,0.4,0.8,0.7,1.4,0.9c0.4,0.2,1.1,0.4,2.2,0.4c1.3,0.1,1.6,0.1,4.8,0.1c3.2,0,3.6,0,4.8-0.1c1.2-0.1,1.8-0.2,2.2-0.4
	c0.6-0.2,1-0.5,1.4-0.9c0.4-0.4,0.7-0.8,0.9-1.4c0.2-0.4,0.4-1.1,0.4-2.2c0.1-1.3,0.1-1.6,0.1-4.8c0-3.2,0-3.6-0.1-4.8
	c-0.1-1.2-0.2-1.8-0.4-2.2c-0.2-0.6-0.5-1-0.9-1.4c-0.4-0.4-0.8-0.7-1.4-0.9c-0.4-0.2-1.1-0.4-2.2-0.4C15.6,2.2,15.2,2.2,12,2.2z
	 M12,5.8c3.4,0,6.2,2.8,6.2,6.2c0,3.4-2.8,6.2-6.2,6.2c-3.4,0-6.2-2.8-6.2-6.2C5.8,8.6,8.6,5.8,12,5.8z M12,16c2.2,0,4-1.8,4-4
	c0-2.2-1.8-4-4-4c-2.2,0-4,1.8-4,4C8,14.2,9.8,16,12,16z M19.8,5.6c0,0.8-0.6,1.4-1.4,1.4C17.6,7,17,6.4,17,5.6s0.6-1.4,1.4-1.4
	C19.2,4.2,19.8,4.8,19.8,5.6z"/>
</svg>
