<?xml version="1.0" encoding="utf-8"?>
<svg version="1.2" baseProfile="tiny" xmlns="http://www.w3.org/2000/svg" xmlns:xlink="http://www.w3.org/1999/xlink"
	 x="0px" y="0px" viewBox="0 0 27 20" xml:space="preserve">
<path id="Youtube" fill="#FFFFFF" d="M10.7,13.6l0-7.8L18,9.7L10.7,13.6z M26.7,4.5c0,0-0.3-1.9-1.1-2.7c-1-1.1-2.2-1.1-2.7-1.2
	c-3.8-0.3-9.4-0.3-9.4-0.3h0c0,0-5.7,0-9.4,0.3C3.5,0.6,2.4,0.6,1.3,1.7C0.5,2.6,0.3,4.5,0.3,4.5S0,6.7,0,8.9V11
	c0,2.2,0.3,4.5,0.3,4.5s0.3,1.9,1.1,2.7c1,1.1,2.4,1.1,3,1.2c2.2,0.2,9.2,0.3,9.2,0.3s5.7,0,9.5-0.3c0.5-0.1,1.7-0.1,2.7-1.2
	c0.8-0.8,1.1-2.7,1.1-2.7S27,13.3,27,11V8.9C27,6.7,26.7,4.5,26.7,4.5L26.7,4.5z"/>
</svg>
